# CAD Exchanger 3.6.0 (cadexchanger.com)
# Object Count: 1
mtllib control_box_1.mtl
g control_box_1
v 0.001857 -0.000904 -0.000906
v 0.001852 -0.000911 -0.000899
v 0.001847 -0.000977 -0.000944
v 0.001847 -0.000919 -0.000893
v 0.001847 -0.000977 -0.000944
v 0.001852 -0.000911 -0.000899
v 0.001854 -0.000922 -0.000891
v 0.001861 -0.000925 -0.000888
v 0.001847 -0.000977 -0.000944
v 0.001847 -0.000919 -0.000893
v 0.001854 -0.000922 -0.000891
v 0.001847 -0.000977 -0.000944
v 0.001861 -0.000982 -0.000938
v 0.001847 -0.000977 -0.000944
v 0.001861 -0.000925 -0.000888
v 0.001861 -0.000925 -0.000888
v 0.001866 -0.000928 -0.000886
v 0.001861 -0.000982 -0.000938
v 0.001866 -0.000928 -0.000886
v 0.001869 -0.000932 -0.000882
v 0.001866 -0.000985 -0.000935
v 0.001869 -0.000932 -0.000881
v 0.001869 -0.000937 -0.000878
v 0.001869 -0.000989 -0.000931
v 0.001869 -0.000932 -0.000882
v 0.001869 -0.000932 -0.000881
v 0.001869 -0.000989 -0.000931
v 0.001868 -0.000997 -0.000922
v 0.001869 -0.000993 -0.000927
v 0.001869 -0.000937 -0.000877
v 0.001868 -0.000941 -0.000874
v 0.001868 -0.000997 -0.000922
v 0.001869 -0.000937 -0.000877
v 0.001869 -0.000993 -0.000927
v 0.001869 -0.000989 -0.000931
v 0.001869 -0.000937 -0.000878
v 0.001869 -0.000989 -0.000931
v 0.001866 -0.000985 -0.000935
v 0.001869 -0.000932 -0.000882
v 0.001866 -0.000985 -0.000935
v 0.001861 -0.000982 -0.000938
v 0.001866 -0.000928 -0.000886
v 0.001868 -0.000997 -0.000922
v 0.001835 -0.000985 -0.000833
v 0.001803 -0.001075 -0.000832
v 0.001868 -0.000941 -0.000874
v 0.001835 -0.000985 -0.000833
v 0.001868 -0.000997 -0.000922
v 0.001803 -0.001026 -0.000789
v 0.001803 -0.001075 -0.000832
v 0.001835 -0.000985 -0.000833
v 0.001803 -0.001026 -0.000789
v 0.001799 -0.001029 -0.000785
v 0.001803 -0.001075 -0.000832
v 0.001799 -0.001078 -0.000828
v 0.001803 -0.001075 -0.000832
v 0.001799 -0.001029 -0.000785
v 0.001799 -0.001029 -0.000785
v 0.001793 -0.001031 -0.000783
v 0.001799 -0.001078 -0.000828
v 0.001793 -0.001080 -0.000826
v 0.001799 -0.001078 -0.000828
v 0.001793 -0.001031 -0.000783
v 0.001793 -0.001080 -0.000826
v 0.001793 -0.001031 -0.000783
v 0.001787 -0.001081 -0.000826
v 0.001781 -0.001079 -0.000827
v 0.001787 -0.001081 -0.000826
v 0.001787 -0.001031 -0.000783
v 0.001781 -0.001030 -0.000784
v 0.001781 -0.001079 -0.000827
v 0.001787 -0.001031 -0.000783
v 0.001787 -0.001031 -0.000783
v 0.001787 -0.001081 -0.000826
v 0.001793 -0.001031 -0.000783
v 0.001819 -0.000967 -0.000956
v 0.001843 -0.000897 -0.000911
v 0.001847 -0.000977 -0.000944
v 0.001829 -0.000891 -0.000916
v 0.001843 -0.000897 -0.000911
v 0.001819 -0.000967 -0.000956
v 0.001857 -0.000904 -0.000906
v 0.001847 -0.000977 -0.000944
v 0.001843 -0.000897 -0.000911
v 0.001781 -0.001030 -0.000784
v 0.001753 -0.001020 -0.000796
v 0.001781 -0.001079 -0.000827
v 0.001724 -0.001059 -0.000850
v 0.001781 -0.001079 -0.000827
v 0.001753 -0.001020 -0.000796
v 0.001724 -0.001010 -0.000807
v 0.001724 -0.001059 -0.000850
v 0.001753 -0.001020 -0.000796
v 0.001724 -0.001059 -0.000850
v 0.001724 -0.001010 -0.000807
v 0.001720 -0.001057 -0.000853
v 0.001720 -0.001007 -0.000810
v 0.001720 -0.001057 -0.000853
v 0.001724 -0.001010 -0.000807
v 0.001720 -0.001057 -0.000853
v 0.001720 -0.001007 -0.000810
v 0.001717 -0.001053 -0.000857
v 0.001717 -0.001003 -0.000814
v 0.001717 -0.001053 -0.000857
v 0.001720 -0.001007 -0.000810
v 0.001717 -0.001053 -0.000857
v 0.001717 -0.001003 -0.000814
v 0.001716 -0.001049 -0.000862
v 0.001716 -0.001003 -0.000814
v 0.001716 -0.001049 -0.000862
v 0.001717 -0.001003 -0.000814
v 0.001716 -0.001049 -0.000862
v 0.001716 -0.000999 -0.000818
v 0.001718 -0.001045 -0.000867
v 0.001718 -0.000994 -0.000823
v 0.001718 -0.001045 -0.000867
v 0.001716 -0.000998 -0.000819
v 0.001716 -0.000999 -0.000818
v 0.001716 -0.001049 -0.000862
v 0.001716 -0.001003 -0.000814
v 0.001718 -0.000994 -0.000823
v 0.001750 -0.000951 -0.000865
v 0.001718 -0.001045 -0.000867
v 0.001783 -0.000966 -0.000957
v 0.001718 -0.001045 -0.000867
v 0.001750 -0.000951 -0.000865
v 0.001783 -0.000906 -0.000904
v 0.001783 -0.000966 -0.000957
v 0.001750 -0.000951 -0.000865
v 0.001753 -0.001020 -0.000796
v 0.001781 -0.001030 -0.000784
v 0.001835 -0.000985 -0.000833
v 0.001753 -0.001020 -0.000796
v 0.001835 -0.000985 -0.000833
v 0.001724 -0.001010 -0.000807
v 0.001716 -0.000999 -0.000818
v 0.001716 -0.001003 -0.000814
v 0.001835 -0.000985 -0.000833
v 0.001718 -0.000994 -0.000823
v 0.001716 -0.000998 -0.000819
v 0.001835 -0.000985 -0.000833
v 0.001750 -0.000951 -0.000865
v 0.001718 -0.000994 -0.000823
v 0.001835 -0.000985 -0.000833
v 0.001783 -0.000966 -0.000957
v 0.001783 -0.000906 -0.000904
v 0.001787 -0.000963 -0.000960
v 0.001786 -0.000902 -0.000907
v 0.001787 -0.000963 -0.000960
v 0.001783 -0.000906 -0.000904
v 0.001787 -0.000963 -0.000960
v 0.001787 -0.000902 -0.000907
v 0.001792 -0.000961 -0.000963
v 0.001791 -0.000900 -0.000909
v 0.001792 -0.000961 -0.000963
v 0.001787 -0.000902 -0.000907
v 0.001792 -0.000961 -0.000963
v 0.001792 -0.000900 -0.000909
v 0.001798 -0.000961 -0.000963
v 0.001797 -0.000899 -0.000909
v 0.001798 -0.000961 -0.000963
v 0.001792 -0.000900 -0.000909
v 0.001804 -0.000900 -0.000908
v 0.001804 -0.000901 -0.000908
v 0.001798 -0.000961 -0.000963
v 0.001798 -0.000899 -0.000909
v 0.001801 -0.000899 -0.000909
v 0.001798 -0.000961 -0.000963
v 0.001803 -0.000900 -0.000909
v 0.001798 -0.000961 -0.000963
v 0.001801 -0.000899 -0.000909
v 0.001804 -0.000900 -0.000908
v 0.001798 -0.000961 -0.000963
v 0.001803 -0.000900 -0.000909
v 0.001804 -0.000962 -0.000962
v 0.001798 -0.000961 -0.000963
v 0.001804 -0.000901 -0.000908
v 0.001798 -0.000899 -0.000909
v 0.001798 -0.000961 -0.000963
v 0.001797 -0.000899 -0.000909
v 0.001792 -0.000900 -0.000909
v 0.001792 -0.000961 -0.000963
v 0.001791 -0.000900 -0.000909
v 0.001812 -0.000904 -0.000906
v 0.001819 -0.000907 -0.000903
v 0.001804 -0.000962 -0.000962
v 0.001804 -0.000901 -0.000908
v 0.001812 -0.000904 -0.000906
v 0.001804 -0.000962 -0.000962
v 0.001819 -0.000967 -0.000956
v 0.001804 -0.000962 -0.000962
v 0.001819 -0.000907 -0.000903
v 0.001819 -0.000907 -0.000903
v 0.001824 -0.000899 -0.000909
v 0.001819 -0.000967 -0.000956
v 0.001829 -0.000891 -0.000916
v 0.001819 -0.000967 -0.000956
v 0.001824 -0.000899 -0.000909
v 0.001819 -0.000967 -0.000956
v 0.001847 -0.000977 -0.000944
v 0.001800 -0.000968 -0.000955
v 0.001857 -0.000988 -0.000932
v 0.001800 -0.000968 -0.000955
v 0.001847 -0.000977 -0.000944
v 0.001804 -0.000962 -0.000962
v 0.001800 -0.000968 -0.000955
v 0.001798 -0.000961 -0.000963
v 0.001804 -0.000962 -0.000962
v 0.001819 -0.000967 -0.000956
v 0.001800 -0.000968 -0.000955
v 0.001861 -0.000982 -0.000938
v 0.001857 -0.000988 -0.000932
v 0.001847 -0.000977 -0.000944
v 0.001786 -0.001074 -0.000833
v 0.001781 -0.001079 -0.000827
v 0.001729 -0.001053 -0.000857
v 0.001861 -0.000982 -0.000938
v 0.001866 -0.000985 -0.000935
v 0.001857 -0.000988 -0.000932
v 0.001781 -0.001079 -0.000827
v 0.001786 -0.001074 -0.000833
v 0.001787 -0.001081 -0.000826
v 0.001724 -0.001059 -0.000850
v 0.001720 -0.001057 -0.000853
v 0.001729 -0.001053 -0.000857
v 0.001866 -0.000985 -0.000935
v 0.001869 -0.000989 -0.000931
v 0.001859 -0.000989 -0.000931
v 0.001825 -0.001036 -0.000877
v 0.001830 -0.001030 -0.000883
v 0.001868 -0.000997 -0.000922
v 0.001791 -0.000970 -0.000953
v 0.001761 -0.001006 -0.000911
v 0.001783 -0.000966 -0.000957
v 0.001787 -0.000963 -0.000960
v 0.001792 -0.000968 -0.000954
v 0.001783 -0.000966 -0.000957
v 0.001724 -0.001059 -0.000850
v 0.001729 -0.001053 -0.000857
v 0.001781 -0.001079 -0.000827
v 0.001717 -0.001053 -0.000857
v 0.001716 -0.001049 -0.000862
v 0.001726 -0.001051 -0.000860
v 0.001783 -0.000966 -0.000957
v 0.001756 -0.001012 -0.000905
v 0.001718 -0.001045 -0.000867
v 0.001869 -0.000989 -0.000931
v 0.001869 -0.000993 -0.000927
v 0.001860 -0.000991 -0.000929
v 0.001860 -0.000994 -0.000925
v 0.001868 -0.000997 -0.000922
v 0.001830 -0.001030 -0.000883
v 0.001792 -0.000961 -0.000963
v 0.001795 -0.000968 -0.000955
v 0.001787 -0.000963 -0.000960
v 0.001793 -0.001080 -0.000826
v 0.001791 -0.001074 -0.000833
v 0.001799 -0.001078 -0.000828
v 0.001787 -0.001081 -0.000826
v 0.001789 -0.001074 -0.000833
v 0.001793 -0.001080 -0.000826
v 0.001720 -0.001057 -0.000853
v 0.001717 -0.001053 -0.000857
v 0.001727 -0.001052 -0.000858
v 0.001727 -0.001048 -0.000863
v 0.001718 -0.001045 -0.000867
v 0.001756 -0.001012 -0.000905
v 0.001869 -0.000993 -0.000927
v 0.001868 -0.000997 -0.000922
v 0.001860 -0.000992 -0.000927
v 0.001825 -0.001036 -0.000877
v 0.001756 -0.001012 -0.000905
v 0.001830 -0.001030 -0.000883
v 0.001798 -0.000961 -0.000963
v 0.001797 -0.000968 -0.000956
v 0.001792 -0.000961 -0.000963
v 0.001795 -0.001072 -0.000835
v 0.001825 -0.001036 -0.000877
v 0.001803 -0.001075 -0.000832
v 0.001799 -0.001078 -0.000828
v 0.001794 -0.001074 -0.000834
v 0.001803 -0.001075 -0.000832
v 0.001716 -0.001049 -0.000862
v 0.001718 -0.001045 -0.000867
v 0.001726 -0.001049 -0.000862
v 0.001761 -0.001006 -0.000911
v 0.001830 -0.001030 -0.000883
v 0.001756 -0.001012 -0.000905
v 0.001756 -0.001012 -0.000905
v 0.001783 -0.000966 -0.000957
v 0.001761 -0.001006 -0.000911
v 0.001868 -0.000997 -0.000922
v 0.001803 -0.001075 -0.000832
v 0.001825 -0.001036 -0.000877
v 0.001825 -0.001033 -0.000875
v 0.001825 -0.001036 -0.000877
v 0.001795 -0.001070 -0.000833
v 0.001795 -0.001072 -0.000835
v 0.001795 -0.001070 -0.000833
v 0.001825 -0.001036 -0.000877
v 0.001786 -0.001071 -0.000831
v 0.001729 -0.001051 -0.000855
v 0.001825 -0.001033 -0.000875
v 0.001825 -0.001033 -0.000875
v 0.001795 -0.001070 -0.000833
v 0.001786 -0.001071 -0.000831
v 0.001756 -0.001009 -0.000903
v 0.001825 -0.001033 -0.000875
v 0.001729 -0.001051 -0.000855
v 0.001756 -0.001009 -0.000903
v 0.001729 -0.001051 -0.000855
v 0.001727 -0.001045 -0.000861
v 0.001727 -0.001048 -0.000863
v 0.001756 -0.001012 -0.000905
v 0.001727 -0.001045 -0.000861
v 0.001756 -0.001009 -0.000903
v 0.001727 -0.001045 -0.000861
v 0.001756 -0.001012 -0.000905
v 0.001756 -0.001009 -0.000903
v 0.001756 -0.001012 -0.000905
v 0.001825 -0.001033 -0.000875
v 0.001825 -0.001036 -0.000877
v 0.001825 -0.001033 -0.000875
v 0.001756 -0.001012 -0.000905
v 0.001729 -0.001051 -0.000855
v 0.001786 -0.001071 -0.000831
v 0.001729 -0.001053 -0.000857
v 0.001786 -0.001074 -0.000833
v 0.001729 -0.001053 -0.000857
v 0.001786 -0.001071 -0.000831
v 0.001791 -0.000967 -0.000951
v 0.001800 -0.000966 -0.000953
v 0.001860 -0.000991 -0.000923
v 0.001857 -0.000986 -0.000930
v 0.001860 -0.000991 -0.000923
v 0.001800 -0.000966 -0.000953
v 0.001761 -0.001003 -0.000909
v 0.001791 -0.000967 -0.000951
v 0.001830 -0.001028 -0.000881
v 0.001860 -0.000991 -0.000923
v 0.001830 -0.001028 -0.000881
v 0.001791 -0.000967 -0.000951
v 0.001761 -0.001006 -0.000911
v 0.001761 -0.001003 -0.000909
v 0.001830 -0.001030 -0.000883
v 0.001830 -0.001028 -0.000881
v 0.001830 -0.001030 -0.000883
v 0.001761 -0.001003 -0.000909
v 0.001800 -0.000968 -0.000955
v 0.001857 -0.000988 -0.000932
v 0.001800 -0.000966 -0.000953
v 0.001857 -0.000986 -0.000930
v 0.001800 -0.000966 -0.000953
v 0.001857 -0.000988 -0.000932
v 0.001761 -0.001003 -0.000909
v 0.001761 -0.001006 -0.000911
v 0.001791 -0.000967 -0.000951
v 0.001791 -0.000970 -0.000953
v 0.001791 -0.000967 -0.000951
v 0.001761 -0.001006 -0.000911
v 0.001860 -0.000994 -0.000925
v 0.001830 -0.001030 -0.000883
v 0.001860 -0.000991 -0.000923
v 0.001830 -0.001028 -0.000881
v 0.001860 -0.000991 -0.000923
v 0.001830 -0.001030 -0.000883
vn 0.879300 -0.312600 0.359200
vn 0.879300 -0.312600 0.359300
vn 0.495200 0.570400 -0.655400
vn 0.476200 0.577200 -0.663300
vn 0.562900 0.540600 -0.625200
vn 0.665300 0.484200 -0.568300
vn 0.871700 0.315800 -0.374700
vn 0.987500 0.103000 -0.119000
vn 0.968800 0.162300 -0.187300
vn 0.968800 0.162400 -0.187400
vn 0.978000 -0.137500 0.157000
vn 0.978000 -0.137000 0.157400
vn 0.946400 -0.212100 0.243600
vn 0.996300 0.056400 -0.064800
vn 0.932800 0.233900 -0.274200
vn 0.789300 0.397200 -0.468200
vn 0.907600 -0.275600 0.316600
vn 0.846500 -0.349500 0.401600
vn 0.846500 -0.349400 0.401600
vn 0.784400 -0.407100 0.467900
vn 0.696900 -0.470800 0.540900
vn 0.697000 -0.470900 0.540800
vn 0.696900 -0.470900 0.540800
vn 0.477800 -0.576700 0.662700
vn 0.415700 -0.597300 0.685800
vn 0.415700 -0.597300 0.685900
vn 0.138100 -0.650400 0.747000
vn -0.197200 -0.643900 0.739200
vn -0.197200 -0.643600 0.739500
vn -0.321200 -0.621800 0.714300
vn -0.321200 -0.621600 0.714400
vn 0.067700 -0.655000 0.752600
vn 0.460000 0.362300 -0.810600
vn -0.419000 -0.596100 0.684900
vn -0.467000 -0.580500 0.667000
vn -0.532500 -0.555600 0.638500
vn -0.532500 -0.555000 0.639100
vn -0.637300 -0.506000 0.581300
vn -0.716700 -0.457900 0.526000
vn -0.876100 -0.316600 0.363700
vn -0.876100 -0.316500 0.363800
vn -0.919400 -0.258400 0.296600
vn -0.919400 -0.258400 0.296500
vn -0.980800 -0.130600 0.144900
vn -0.989900 -0.097800 0.102800
vn -0.989900 -0.097800 0.102700
vn -0.994100 0.065800 -0.086600
vn -0.994100 0.065700 -0.086600
vn -0.961800 0.173900 -0.211600
vn -0.998700 -0.039500 0.033700
vn -0.920100 0.255500 -0.297000
vn -0.897700 0.287500 -0.333800
vn -0.847000 0.348900 -0.401000
vn 0.001000 0.722400 0.691500
vn 0.002500 0.720300 0.693700
vn 0.004800 0.715300 0.698800
vn 0.006000 0.709400 0.704800
vn 0.003900 0.689200 0.724600
vn -0.774400 0.415300 -0.477300
vn -0.774400 0.415300 -0.477200
vn -0.708100 0.463500 -0.532700
vn -0.492400 0.571500 -0.656500
vn -0.392900 0.603400 -0.693900
vn -0.100900 0.652500 -0.751000
vn -0.002700 0.655300 -0.755400
vn -0.002700 0.655400 -0.755300
vn 0.341200 0.613300 -0.712300
vn 0.341300 0.613300 -0.712300
vn 0.341400 0.613200 -0.712300
vn 0.173400 0.645400 -0.743900
vn 0.249800 0.632600 -0.733100
vn 0.249700 0.632600 -0.733100
vn 0.320900 0.617100 -0.718400
vn 0.320800 0.617100 -0.718500
vn 0.344800 0.614300 -0.709800
vn 0.091200 0.653300 -0.751600
vn 0.091300 0.653300 -0.751600
vn -0.277200 0.630700 -0.724800
vn -0.277300 0.630700 -0.724800
vn 0.461900 0.582300 -0.669000
vn 0.439800 0.588400 -0.678500
vn 0.439800 0.588500 -0.678400
vn 0.461800 0.582300 -0.669100
vn 0.461800 0.582300 -0.669000
vn -0.879300 0.312600 -0.359300
vn 0.000000 -0.754300 -0.656500
vn -0.000100 -0.754400 -0.656400
vn 0.000000 -0.754400 -0.656400
vn 0.000100 -0.754400 -0.656400
vn 0.000200 -0.754000 -0.656900
vn -0.000000 -0.754400 -0.656500
vn -0.000100 -0.754400 -0.656500
vn 0.000100 -0.754400 -0.656500
vn -0.000100 -0.754300 -0.656500
vn -0.000100 -0.754500 -0.656300
vn 0.000600 -0.754500 -0.656300
vn -0.869000 0.325000 -0.373100
vn -0.869000 0.324700 -0.373300
vn -0.846800 0.349100 -0.401300
vn -0.846800 0.349100 -0.401400
vn 0.908800 -0.273900 0.314700
vn 0.908800 -0.273900 0.314800
vn 0.894700 -0.293200 0.336900
vn -0.475500 -0.577600 0.663500
vn -0.475500 -0.577400 0.663600
vn 0.507600 0.565500 -0.650000
vn 0.507600 0.565700 -0.649900
vn 0.450000 0.586000 -0.673800
vn 0.450000 0.586300 -0.673600
vn 0.000100 -0.754300 -0.656500
vn 0.475500 0.577600 -0.663500
vn -0.442700 -0.588700 0.676400
vn -0.442700 -0.588800 0.676300
vn -0.500600 -0.568300 0.653000
vn 0.869000 -0.324900 0.373100
vn 0.869100 -0.324900 0.373000
vn 0.869000 -0.324900 0.373200
vn 0.846900 -0.349000 0.401100
vn 0.846900 -0.349100 0.401100
vn -0.909000 0.273500 -0.314400
vn -0.894700 0.293200 -0.336900
usemtl Default_OBJ
f 1//1 2//1 3//1
f 4//2 5//2 6//2
f 7//3 8//3 9//3
f 10//4 11//4 12//4
f 13//5 14//5 15//5
f 16//6 17//6 18//6
f 19//7 20//7 21//7
f 22//8 23//8 24//8
f 25//9 26//10 27//10
f 28//11 29//12 30//12
f 31//13 32//13 33//13
f 34//14 35//14 36//14
f 37//15 38//15 39//15
f 40//16 41//16 42//16
f 43//1 44//1 45//1
f 46//17 47//17 48//17
f 49//18 50//19 51//18
f 52//20 53//20 54//20
f 55//21 56//22 57//23
f 58//24 59//24 60//24
f 61//25 62//25 63//26
f 64//27 65//27 66//27
f 67//28 68//29 69//29
f 70//30 71//30 72//31
f 73//32 74//32 75//32
f 76//33 77//33 78//33
f 79//33 80//33 81//33
f 82//33 83//33 84//33
f 85//34 86//34 87//34
f 88//35 89//35 90//35
f 91//36 92//36 93//37
f 94//38 95//38 96//38
f 97//39 98//39 99//39
f 100//40 101//40 102//41
f 103//42 104//43 105//42
f 106//44 107//44 108//44
f 109//45 110//45 111//46
f 112//47 113//48 114//48
f 115//49 116//49 117//49
f 118//50 119//50 120//50
f 121//51 122//51 123//51
f 124//52 125//52 126//52
f 127//53 128//53 129//53
f 130//54 131//54 132//54
f 133//55 134//55 135//55
f 136//56 137//56 138//56
f 139//57 140//57 141//57
f 142//58 143//58 144//58
f 145//59 146//59 147//60
f 148//61 149//61 150//61
f 151//62 152//62 153//62
f 154//63 155//63 156//63
f 157//64 158//64 159//64
f 160//65 161//66 162//66
f 163//67 164//68 165//69
f 166//70 167//70 168//70
f 169//71 170//72 171//71
f 172//73 173//73 174//74
f 175//75 176//75 177//75
f 178//76 179//77 180//76
f 181//78 182//79 183//78
f 184//80 185//80 186//80
f 187//81 188//82 189//82
f 190//83 191//83 192//84
f 193//85 194//85 195//85
f 196//85 197//85 198//85
f 199//86 200//86 201//86
f 202//86 203//86 204//86
f 205//87 206//87 207//87
f 208//88 209//88 210//88
f 211//86 212//86 213//86
f 214//86 215//86 216//86
f 217//86 218//86 219//86
f 220//89 221//89 222//89
f 223//89 224//89 225//89
f 226//89 227//89 228//89
f 229//90 230//90 231//90
f 232//89 233//89 234//89
f 235//88 236//88 237//88
f 238//91 239//91 240//91
f 241//88 242//88 243//88
f 244//91 245//91 246//91
f 247//86 248//86 249//86
f 250//92 251//92 252//92
f 253//86 254//86 255//86
f 256//93 257//93 258//93
f 259//88 260//88 261//88
f 262//87 263//87 264//87
f 265//88 266//88 267//88
f 268//94 269//94 270//94
f 271//86 272//86 273//86
f 274//86 275//86 276//86
f 277//91 278//91 279//91
f 280//95 281//95 282//95
f 283//86 284//86 285//86
f 286//86 287//86 288//86
f 289//96 290//96 291//96
f 292//91 293//91 294//91
f 295//97 296//97 297//98
f 298//99 299//100 300//100
f 301//91 302//91 303//91
f 304//86 305//86 306//86
f 307//88 308//88 309//88
f 310//91 311//91 312//91
f 313//101 314//102 315//102
f 316//103 317//103 318//103
f 319//104 320//104 321//104
f 322//105 323//105 324//105
f 325//106 326//107 327//107
f 328//108 329//109 330//109
f 331//88 332//88 333//88
f 334//110 335//110 336//110
f 337//91 338//91 339//91
f 340//88 341//88 342//88
f 343//111 344//111 345//111
f 346//111 347//111 348//111
f 349//112 350//113 351//113
f 352//114 353//114 354//114
f 355//115 356//116 357//117
f 358//118 359//118 360//119
f 361//120 362//120 363//120
f 364//121 365//121 366//121
